<svg xmlns="http://www.w3.org/2000/svg" viewBox="0 0 512 512">
  <path fill="#154273" d="M128 0h256v512H128z"/>
  <path fill="#fff" d="M260.6 396.3H256V384h4.6v12.3Zm20-54.8h-4.1v-12.3h4.6v12.3h-.5Zm-82.4-21c-.6 0-2.6 0-2.6.5s1 0 2.6.5c3.5.5 5 2.6 7.6 2.6 2 0 4.6-1.5 3.6-4.6 0-.5-.5-.5-.5 0-.5 1.5-2 2.5-4.1 2.5-2.6-1-3-1.5-6.7-1.5Zm-24.6 12.3c.5.5 4.6 6.1-2 8.2-.6 0-.6.5 0 .5 4.5 2 7-1.5 7-1.5 2.7 5.6-1.4 8.7-1.4 8.7.5 1 3 2.5 6 3.5 1.6-.5 3.2-2 4.2-4 0 0 1 2.5 0 4.6 9.7 1 13.3-6.7 20.5-5.7 0 0 .5 0 .5-.5 0-4.6-3-13.8-12.3-15.3-9.2-1.6-6.7-5.7-6.7-5.7 4.1 0 6.2 1.6 6.2 1.6.5-1-.5-2.6-.5-2.6.5-.5.5-2 .5-2-4.6 0-5.7-1-5.7-1-.5-2.6 1-6.2 7.7-2.6 1.6-1.6 1.6-3.6 1.6-3.6.5 0 1-1 1-1.5 0-1-5.1-4.1-6.7-4.1-.5-1.6-2.5-4.1-8.7-3.1-3 .5-5.1-.5-4-2 0-.6-.6-.6-.6 0-.5.4-1.5 2.5 1 4 3.1 1.6 3.1 4.1 3.1 4.6s-.5.6-1 0c-1-4.6-7.7-5.6-11.8-3 0 2.5 3 4 4.6 4 1 0 2-1 2-2 0-.5.6-.5.6 0 .5 1.6-2 5.1-5.7 3.1-3.5 3.6-2 8.7-2 10.2.5 3.1-1 6.2-3.6 4.6h-.5c1 2.1 3.6 4.2 6.7 2.6Zm21-19.5c-2 2.1-4.6 1.6-5.7-1.5 4.1 0 5.7 0 5.7 1.5Zm113.1 7.7c-2 0-3.6-1-4-2.5 0-.5-.6-.5-.6 0-1 3 1.5 4.6 3.6 4.6 2.5 0 4-1.6 7.7-2.6 1.5 0 2.5 0 2.5-.5s-2.5-.5-2.5-.5c-4.1 1-4.6 1.5-6.7 1.5Zm36.4 9.3q0-.6 0 0c-3.1 1-4.6-1.6-4.1-5.2.5-1.5 2-6.1-2-10.2-3.7 2-6.2-1.5-5.7-3 0-.6.5-.6.5 0 0 1 1 2 2 2 1.6 0 4.1-1.6 4.7-4.1-4.1-2.6-10.3-1.6-11.8 3 0 .6-1 .6-1 0s0-3 3-4.6c2.6-1 1.6-3 1-4h-.5c1 1.5-1 2.5-4 2-6.2-1-8.3 1.5-8.8 3-1.5.6-6.6 3.1-6.6 4.2 0 .5.5 1 1 1.5 0 0 0 2 1.5 3.6 6.7-4.1 8.2 0 7.7 2.5 0 0-1 1-5.6 1 0 0 0 1.6.5 2.1 0 0-1 1-.5 2.6 0 0 2-1.6 6.1-1.6 0 0 2.6 3.6-6.6 5.6-9.3 2.1-12.3 10.8-12.3 15.4q0 .5.5.5c7.7-1.5 10.7 6.2 20.5 5.6-1-2 0-4.6 0-4.6a8 8 0 0 0 4 4.1c3.6-1 5.7-2.5 6.2-3.5 0 0-3.6-3.1-1-8.7 0 0 2.5 3.5 7.2 1.5.5 0 .5-.5 0-.5-6.7-2-2.1-7.7-2.1-8.2 3.6 2 6.1 0 6.1-2Zm-21-18.5c-.5 3-3.6 3.6-5.1 1.6 0-1.6 1.5-1.6 5-1.6ZM254.5 257c0 1 .5 1.6.5 2q.5 1.1 0 1.6t-1.6 0c-.5-.5-1-.5-2-.5-1.6 0-2 1-2 1.6s.4 1.5 2 1.5c1 0 1.5-.5 2-.5q1-.5 1.6 0c.5.5 0 3-.5 5.1-2.6.5-3.6 2.6-3.6 3.6 0 2.6 3 4.6 4.6 5.1 1.5-1 4.6-2.5 4.6-5.1 0-1-1-3-3.6-3.6-.5-2-.5-5.1-.5-5.1s.5-.5 1.6 0c.5.5 1 .5 2 .5 1.5 0 2-1 2-1.5s-.5-1.6-2-1.6c-1 0-1.5.5-2 .5q-1 .5-1.6 0-.5-.5 0-1.5c.5-.5.5-1 .5-2 0-1.6-1-2.1-1.5-2.1.5 0-.5.5-.5 2Zm1.5 21c-2 0-3.6 1.6-3.6 3.6s1.6 3.6 3.6 3.6 3.6-1.5 3.6-3.6-1.6-3.6-3.6-3.6Zm0 32.8c13.8 0 21.5 2.6 21.5 2.6 0-6.7 0-10.8 4.1-10.3-2-5.6 7.2-8.2 7.2-15.3 0-5.2-3.6-5.7-4.6-5.7-3.1 0-2.6 2-5.2 2h-.5c0 1.1.5 2.6 2 2.6s1.6-1.5 3.2-1.5c.5 0 1 .5 1 2 0 3.1-2 6.7-4.6 9.8-.5-1-1.6-1-2.6-1-1.5 0-2.6 1.5-2.6 3.5 0 .6 0 1 .6 1.6-1 .5-1.6.5-2.1.5-1 0-2.6-.5-2.6-3 0-5.7 7.2-10.3 7.2-17.5 0-3.6-2-6.6-6.6-6.6-5.2 0-4.1 4.6-8.2 4.6h-.5c0 .5.5 2.5 3 2.5s3-4 5.1-4c.6 0 2 .4 2 3 0 2-1 5.6-2.5 9.2-.5-.5-1.5-1-2-1-2 0-3 1.5-3 4 0 1.6.4 2.7 1.5 3.7-1 1.5-2.1 2.5-3.6 2.5-3.1 0-4.1-1.5-4.1-3.5s3.6-2.6 3.6-5.7c0-2-1.6-3-2.6-3-1.5 0-2 1-2.6 1s-1-1-2.5-1-2.6 1-2.6 3c0 3 3.6 4.1 3.6 5.7 0 2-1.5 3.5-4.1 3.5-1.5 0-2.6-1-3.6-2.5 1-1 1.6-2 1.6-3.6 0-2-1.6-4.1-3.1-4.1-1 0-1.6.5-2 1-1.6-3.6-2.6-6.6-2.6-9.2s1-3 2-3c2 0 2.6 4 5.1 4 2 0 3.1-2.5 3.1-2.5h-.5c-4.1 0-3.6-4.6-8.2-4.6s-6.6 3-6.6 6.6c0 7.2 7.1 11.8 7.1 17.4 0 2.6-1.5 3-2.5 3-.5 0-1 0-2-.4 0-.5.4-1 .4-1.6 0-2-1-3.5-2.5-3.5-1 0-1.6.5-2 1a14.5 14.5 0 0 1-4.7-9.7c0-1.6.5-2.1 1-2.1 1 0 1 1.5 3 1.5 1.1 0 2.1-1.5 2.1-2.5h-.5c-2.5 0-2-2-5-2-1.1 0-4.7.4-4.7 5.6 0 7.6 9.2 9.7 7.2 15.3 4-.5 4 3 4 10.3-3 0 4.7-2.6 18-2.6ZM231 321l-7.8 2c0-1.4.5-3 2-3.5v-.5c-3-2-5 2-5 2-1 0-3.1 0-3.1 2.1 0 4.6-10.8 7.2-13.3 7.7 4.6 1.5 6.1 7.2 6.1 7.2 3-3.1 7.2-6.2 7.7-6.2s1 1 1 1.6c0 0 0 .5.5 0 1.6-2.6 1-3.1.5-4.1 0-.6 0-2.6 2.6-2.6v31.7l-1 .5c-.5 0-5.1-4-10.3-7.6-5-3.6-8.1-1.6-14.3 1.5-8.2 4.1-15.9.5-15.9.5-6.6 4.6-9.2 19-9.2 19-1.5.5-3.6 1-5.6 1-5.1 0-6.2-3.1-6.2-5.1 0-8.2 10.3-11.3 10.3-19.5 0-2-1-9.7-10.8-9.7h-8.7c-3.5 0-4.6-2.6-5-3.6 0-.5-.6 0-.6 0 0 .5-.5 1.5-.5 3.6 0 3 2 5 5.6 5 1.6 0 3-.4 3.6-1q.5 0 .5.6c-1.5 1.5-1.5 5-1 6.1h.5c1-3.6 4.1-6.6 8.2-6.6 5.1 0 5.1 4.6 5.1 5.6 0 6.6-11.2 11.2-11.2 20 0 9.2 9.7 10.7 14.8 9.7-.5 9.2-10.7 12.3-10.7 5.6 0-.5-.6-.5-.6 0-1 3-1 6.2 3.1 6.7.5 0 0 0 0 .5-4 2.5-2 12.3-1.5 15.3.5 4.1-4.1 3.6-4.1 3.6s-.5 0 0 .5c3.6 4.6 7.1 1.6 7.1 1.6 2.6 1 1 3-1 4.6-.5 0-.5.5 0 .5s4.6.5 5.7-3c2 2 4.6 1.5 5 1 1-.6 4.7-2.1 5.2 2.5 0 .5 0 0 .5 0 3-4.1 0-6.1-2-6.7 0 0 2.5-2 4.6.6 0 0 .5.5.5 0 .5-4.7-3.6-5.2-6.2-3.1 0-.5-1-3 3.1-3 0 0 .5 0 0-.6-3-3-5.6-.5-6.1.5-1.6 1.6-4.6 1-5.2 1 1-16.9 16-10.7 18-19 0-.4.5-.4.5 0 .5 2.1 5.6 2.1 6.6-1.4v-.6c-4 4.1-13.8-9.2-.5-20 11.3-9.1 21.5-4 25.1-1 0 1.6-.5 1.6-1 2.1v.5c1 .5 2.6.5 3-.5 2.6 1.5.6 4.1-.4 4.6v.5c2 .5 4-2 4-3h.6v9.7c0 13.8 15.8 15.3 32.7 27.1 17.4-11.8 32.8-13.3 32.8-27.1v-9.7h.5c0 1 2 3.5 4.1 3 0 0 .5 0 0-.5-1-.5-3-2.5-.5-4.6.5 1 2 1 3 .5.6 0 0-.5 0-.5-.4 0-1.5-.5-1-2a19 19 0 0 1 25.1 1c13.4 10.7 3.6 24-1 20v.5c1 4 6.2 3.5 6.7 1.5 0 0 0-.5.5 0 2 8.2 16.9 2 18 19-.6 0-3.7.4-5.2-1-.5-.6-3-3.7-6.1-.6v.5c4 0 3 2.6 3 3-2.5-2-6.6-1.5-6.1 3.2q0 .5.5 0c2-3.1 4.6-1 4.6-.6-1.5.6-5.1 2.6-2 6.7 0 0 .5.5.5 0 .5-4.6 4.6-3 5-2.6s3.7 1 5.2-1c1 3.6 5.1 3 5.6 3s.5 0 0-.4c-2-1-3.5-3.6-1-4.6 0 0 3.6 3.6 6.7-.5v-.5c-.5 0-4.6.5-4.1-3.6 0-3.1 2.5-12.8-1.6-15.4 0 0-.5-.5 0-.5 4.1-1 4.6-3.6 3.1-6.7 0-.5-.5-.5-.5 0-.5 6.7-10.8 3.6-10.8-5.6 5.7 1.6 14.9-.5 14.9-9.7 0-8.7-11.3-13.8-11.3-20 0-1 0-5.6 5.2-5.6 4 0 7.6 3 8.1 6.6h.6c.5-1 .5-4-1-6.1 0 0 0-.5.4-.5.6.5 2 1 3.6 1 3.6 0 5.7-2 5.7-5.1 0-2-.6-3-.6-3.6s0-.5-.5 0c-.5 1-1.5 3.6-5 3.6h-8.8c-9.7 0-10.7 7.7-10.7 9.7 0 8.2 10.2 11.3 10.2 19.5 0 2-1 5.1-6.1 5.1-2 0-4.6-.5-5.7-1 0 0-2.5-14.4-9.2-19 0 0-8.2 4.1-15.9-.5-6.1-3-8.7-5.6-14.3-1.5-5.1 3.6-9.7 7.7-10.2 7.7l-1-.5v-31.8c2.5 0 2.5 2 2.5 2.6s-1 1.5.5 4h.5c0-.4.5-1.5 1-1.5s4.7 3.1 7.7 6.2c0 0 2-5.6 6.2-7.2-2.6-.5-13.3-3-13.3-7.7 0-1.5-1.6-2-3.1-2 0 0-2-4.1-5.1-2v.4c1.5.6 2 2 2 3.6a116.9 116.9 0 0 0-53.2-2.5v10.7H231v-11.2m-29.2 112.6c-1-.5-2-1-2-3V424c-2.1-.5-7.2-2.6-18-2.6-8.7 0-11.8 2-11.8 2.6l-2.5 12.8s3.5-3.1 16.3-2.6c15.4 1 31.3 10.2 31.3.5v-5.6c-11.8 0-13.3 3.6-13.3 4.6ZM297 429v5.6c0 9.7 15.9.5 31.7-.5 12.8-1 16.4 2.6 16.4 2.6l-2.5-12.8c0-.5-3.1-2.6-11.8-2.6-10.8 0-15.9 2-18 2.6v6.6c0 1.6-1 2-2 3 0-1-2-4.5-13.8-4.5Zm-41-6.2c25.1 0 50.2 1 53.3 5.2 0 .5.5 0 .5-.5v-12.8c0-4.1-26.1-6.2-53.8-6.2s-53.7 2-53.7 6.2V428s0 .5.5.5c3-4.1 28.7-5.7 53.2-5.7Zm-22-62-2.5-.4v.5l-3.1-1h2.6v-.5l-2.1-2 3 1c-1-1-2-3.1-2-3.1s2.6 1.5 2.6 2c-.5-1.5-1.6-3.6-1.6-3.6l2.6 2.6c0-1-.5-3.6-.5-3.6l2 2.6v-3.1s1 2 1 2.6h.6c0-.5 1-2.6 1-2.6v3h-.5l-.5 3.7c3.6-1 8.2-7.2 12.3-7.2s5.6 5.1 13.8 2.5c2 3.1 2.5 5.7 3.6 9.3 3 3 7.1 2 7.1-1 0-4.2-4.6-4.7-4.6-9.3 0-2 1.6-4.6 5.1-4.6 2 0 4.7 1 6.2 1 2 0 2.5-1.5 2.5-2s.6-.5.6 0v2c0 2.6-4.1 3.1-4.7 2.6 0 0-.5 0 0 0 .6.5.6 2 0 3-.5-2-2.5-4-4.6-4-.5 0-2 .5-2 2 0 2.6 5.1 4.6 5.1 9.7s-5.1 6.7-10.2 5.2c0 5 7.6 7.6 7.6 4 0-.4 0 0 0 0 1 1.6.6 2.6-1 3.1 1 .5 1.6 3.1 2 4.6.6 2.6 3.1 1 3.1 1-1 2.6-3.5 1.6-3.5 1.6-1 1 0 1.5 1.5 2v.6c-1 .5-2.6 1-3.6-.5-.5 1.5-2 1.5-2.5 1.5-1 0-1.6 1-1.6 2-2-1.5-1-3 0-3.5 0 0-1.5-1-2.5 1-1-2.6 1-3.6 2.5-2.6 0-.5-1-1.5-3-1 .5-1 1.5-2 3-1 1 .5 2.6-.5 2.6-.5-3-6.7-9.7-1-11.3-6.2-.5 1-3 1-3.6-1 .6.5 1 1 2.6-1 .5-1 1-2.6 1-3.6 0-4-4-10.7-10.2-10.7-4.1 0-8.2 1.5-11.3 4l3 .6c0 3-3 4.6-5.5 4l.5-3.5c-.5 0-1.6.5-2 1.5-.6-2 1-3 1.5-3-1.6 0-2 1-2.6 1.5 0-.5 0-1.5.5-2Zm8.7 23.1c-1 1.6-2 0-3.6 0s-1.5 1-1.5 1.6c-1.5-2 0-3.6 1-3.6 0 0-1.5-1-2.5.5 0-2.6 2-3 3.5-1.5 0-1-.5-1.6-1.5-1.6.5-.5 1-.5 1.5-.5 1.6 0 1.6 2 2.6 2 1.5 0 3.6-2 3.6-2s-1.6-4-1-6.1c-.5.5-2.6.5-2.6-1.6.5 1 2 0 2.6-1s4.6-6.1 9.2-6.1c1 0 2.5.5 3.6 1.5-1.6 2 0 4.1 1 3.6-6.7 2.6-9.2 3.6-9.2 8.7 0 3 1 4.6 2.5 4-.5.6-1 1.1-2 1.1-1.6 0-1.6-.5-2.6-.5-.5 0-3 1.5-3 2.6 0 .5.5 1 1 1.5 0-1-2-1-2.6-2.6Zm17-52.7c-2.1 0-3.1.5-3.1 1 1 1 2 1 3-1Zm-7.2 5.1c1.5-.5 3 0 3 0v.5c-3 .5-3 1.6-5.1 1.6-1 0-2.6-1-2-3.1q0-.5.5 0c0 .5 1 1.5 3.5 1Zm-39 65.6c2 2.5 4.1 0 6.7 0 1 0 2.6.5 3 3 2.6-4-.4-6.1-2-6.1.5-.5 3-2 5.1.5h.6c0-4.6-3.6-5.1-6.2-3-.5-2.1 1-3.1 2.6-3.1 0 0 .5 0 0-.6-3.1-3.5-5.7 1-6.2 1.6-1 1.5-6.1-1.6-7.6-3.6 0 0 4-4.1 4-8.2v-.5c.6.5 1 .5 1.6.5 1 0 2.6-.5 2.6-3.6q0-.5 0 0c-.6.5-1 1-1.6 1-3 0-10.2-11.2-18.4-11.2-2 0-6.2 1.5-8.2 3.6 1 .5 1 1.5 1 2.5 0 1.6-1 2-2.5 2.6v.5a66.3 66.3 0 0 1 13.3 6.1c2 1.6 1.5 5.2.5 9.8-1 4-3.6 3.6-4.6 3.6 1 1.5 2.5 1.5 3.5 1.5 2 0 3.1-1.5 4.1-1.5 2 0 5.7 2.5 5.7 4.6 0 1-1 2-2 3 1 0 4.5.5 5-3Zm90.7 3c-1-1-2-2-2-3 0-2.1 4-4.7 5.5-4.7 1 0 2 1.6 4.1 1.6 1 0 2.6-.5 3.6-1.6-1 0-3.6.6-4.6-3.5-1-4.6-1.5-7.7.5-9.8 1.6-1.5 9.2-4 13.3-6.1v-.5c-1-.5-2-1-2.5-2.6 0-1 0-2 1-2.5-2-2-6.1-3.6-8.2-3.6-8.2 0-15.4 11.2-18.4 11.2-.5 0-1 0-1.6-1 0 3.6 1.6 3.6 2.6 3.6.5 0 1 0 1.5-.5v.5c0 4.1 4.1 8.2 4.1 8.2-2 2-6.6 5.1-7.6 3.6-.6-.5-3.1-5.1-6.2-1.6v.5c2 0 3 1 2.6 3.1-2.6-2-6.2-2-6.2 3 0 0 0 .6.5 0 1.6-2.5 4.7-1 5.2-.4-2 .5-5.2 2.5-2 6.1.4-2.5 2-3 3-3 2.5 0 4.6 2.5 6.6 0 .6 3.5 4.1 3 5.2 3Zm-66-64c0 .5-1.1 0-1.6 0 0 .5 1 2 2 2 .5 0 1.6-.4 1.6-.4s4.6 1.5 7.1 2c-1 1-1.5 2.6-1.5 4.1l-9.7-5.1-2.6 3c-.5.6-2.6-1-2-1.5l2-2.5c-.5-.5-2-.5-2.6 0 0-.5 1-2 3.6-1.6 0-1.5-2-1-2.5-1 .5-.5 2-2 4-1l1-1-1.5-1.6 1-1.5 1 1.5 8.8-12.3c0-.5 2-1 2.5-1v2.6l-8.7 12.3 2 .5-1.4 2.5-2.1-1-.5 1Zm30.6-2c0 1 .5 2.5 2 2 0 1-2.5 2.6-3.5 1-1 2-.5 3.6 1 4.7v.5c-.5 1-2 1-3-1-1.6 1-1.6 3.5-.6 4.6 0 0-4.6 2.5-8.1 1-2.6-1-4.7-3.1-8.2-2.6.5-4.6 3-6.1 7.1-6.6 3.6-.6 4.1-2.1 3.6-3.6-1-.5-3.6 1-3.6 1-.5-.5 0-1.5 0-1.5 0-.6-.5-1-.5-1 2.6 0 3-.6 3-.6.6-2.5-2-3-4-1.5-1-1-.5-2-.5-2s-.5-.6-.5-1 3-2.1 3.6-2.6c0-1 1-2.1 4.6-1.6.5-1 0-4-.5-4.6 0 0 0-.5.5 0 1 .5 2 3 3 3 0 0 3.6-2 3.6-1.5l.5 4.1c.5.5 3 0 4.6.5.5 0 .5.6 0 .6-1 0-3.5 1.5-4 2 1 2 0 5.6 0 6.7Z"/>
</svg>
