<svg xmlns="http://www.w3.org/2000/svg" width="512" height="512" version="1.0" viewBox="0 0 512 512">
  <path d="M128 256v256h256V0H128v256zm127.7 2.2c-.3.8-.6.5-.6-.6-.1-1.1.2-1.7.5-1.3.3.3.4 1.2.1 1.9zm5.3 3.6c0 .5-2.5.8-5.5.8s-5.5-.3-5.5-.8c0-.4 2.5-.8 5.5-.8s5.5.4 5.5.8zm-2.9 7.5c2.1 2 1.6 4.3-1.4 5.9-2.8 1.5-6.2-2.4-4.7-5.3.6-1 1.5-1.9 2-1.9.6 0 1-.8 1.1-1.8 0-1.3.2-1.4.6-.2.3.8 1.4 2.3 2.4 3.3zm-11 7.3c.7.9 2.2 2 3.4 2.4 1.9.7 1.9.8.2 1.5-1.2.5-2.6 0-4.2-1.5-2.8-2.6-4.5-1.9-4.5 1.9 0 5.1 1.9 9.1 4.3 8.8 1.9-.2 2.2.3 2.3 3.6.1 4.4 1.3 6 4.5 5.5 2.9-.4 3.6-3.3 1.4-5.8-2.8-3.1-1.6-5.5 3-5.5s5.8 2.4 3 5.5c-2.2 2.5-1.5 5.4 1.4 5.8 3.2.5 4.4-1.1 4.5-5.5.1-3.3.4-3.8 2.3-3.6 2.4.3 4.3-3.7 4.3-8.8 0-3.8-1.7-4.5-4.5-1.9-1.6 1.5-3 2-4.2 1.5-1.7-.7-1.7-.8.2-1.5a8.4 8.4 0 0 0 3.4-2.4c1.6-1.9 6.4-2.1 7.9-.3 2.7 3.2 2.3 6.2-1.7 14.1-3.2 6.3-3.8 8.2-3 9.8 1.1 2.1 4.6 2 4.1-.1-.4-2 1.9-4.2 3.8-3.6 2.2.7 4.9-3.3 5.7-8.2l.6-3.5-3.4.6c-3.2.7-3.3.6-1.4-.9a6.6 6.6 0 0 1 4.5-1.3c2.1.3 2.6.9 2.8 3.8.2 2.9-.4 4.5-3.2 8-2 2.5-3.6 5.1-3.6 5.7 0 .7-.9 2.2-2 3.3a8 8 0 0 0-2 5.4v3.4l-4.2-1a136 136 0 0 0-30-.5l-4.8.8V308c0-2.7-.5-4.3-1.5-4.6-.8-.4-1.5-1.2-1.5-1.9s-1.6-3.2-3.5-5.5c-4.1-4.9-5.1-8-3.5-10.9 1.1-2.1 3.4-2.6 6.4-1.5 2.6 1 1.8 2.7-.9 2-2.3-.6-2.5-.4-2.5 2.7 0 3.9 3.5 9.1 5.5 8.3 1.7-.6 3.9 1.9 3 3.4-1.2 1.9 2.7 2.4 4.1.5 1.7-2.3 1.1-4.3-2.8-10.7-3.6-5.8-4.1-11.4-1.3-13.4 2.5-1.9 6-1.8 7.6.2zm11.7 5c.3 2.3-1.8 3.7-4.3 2.8-1.6-.6-2-3.5-.8-4.8 1.4-1.4 4.8-.1 5.1 2zM195 310.4l4.8 3.1c.2.2-.1 1.3-.8 2.4-.9 1.8-1.7 2.1-4.5 1.5-2.7-.5-3.5-.2-4.4 1.4-1.2 2.2.2 4.2 3.1 4.2 1 0 1.8.7 1.8 1.6 0 1.2-.7 1.4-3.1.9-2.8-.6-3-.5-2.7 1.7.2 1.8 1.4 2.7 5.8 4.1 6.3 2.1 9.7 4.8 11.6 9.4 2 4.6 1.8 6.3-.8 6.3a26 26 0 0 0-7.3 2.5c-6.5 3.2-10.5 3.3-10.5.3v-2.1l-2.5 2.3c-2.3 2.2-2.6 2.2-4.9.7-2.2-1.5-2.3-2-1.4-4.5 1.5-4 .5-6.6-2.1-5.2-3.2 1.7-4.3 1.2-2.7-1.3 2-3 1-6.7-1.8-6.7-1.1 0-2.7-.4-3.4-.9-1.1-.7-1.1-.9.2-1.4 1.2-.5 1.6-2 1.6-6 0-6 1.4-8.4 5-8.9 1.4-.2 2.6-1.1 2.8-2.1.3-1.6.1-1.7-1.7-.5-1.7 1.1-2.3 1-3.8-.4-2.2-2.2-1.1-3.2 3.4-3.2 2.5 0 4.1.7 5.5 2.3 1 1.3 2.1 2.1 2.5 1.8.7-.8-2.4-5.7-3.7-5.7-.6 0-1-.3-1-.8 0-1.8 10.7.4 15 3.2zm133.5-1.6c-2.5 2.3-3.2 4.2-1.7 4.2.5 0 1.7-.9 2.7-2 1.1-1.2 3.1-2 5-2 3.8 0 4.9.8 3.4 2.7-1.4 1.6-4.6 1.7-5.2 0-.4-.7-.6-.6-.6.4-.1 2.2 2.5 4.3 4.4 3.5 2.2-.8 3.6 2.6 3.4 8.5-.2 3.9.2 5.5 1.5 6.4 2 1.5.4 3-2.1 2.1-3.3-1.3-4.7 5.5-1.5 7.3 1.6 1 1.6 1-.1 1.1-1 0-2.7-.5-3.9-1.1-1.9-1-2-.8-1.6 4.2.3 5.1.2 5.4-2.5 6.3-2.4.9-3.1.7-4.2-.7-1.6-2.3-2.5-2.2-2.5.3 0 2.8-2.5 2.5-9.5-1-3.3-1.6-7-3-8.2-3-2.8 0-2.9-1.2-.3-6.6 2.3-4.7 4.5-6.5 10.5-8.4 4.8-1.5 6.5-2.8 6.5-4.7 0-1.1-.8-1.4-3-1.1-2.4.4-3 .1-3-1.4 0-1.3.7-1.8 2.5-1.8 2 0 2.5-.5 2.5-2.4 0-2.8-2.1-3.9-5.4-2.6-2 .7-2.5.5-3.5-1.6-1-2.2-.8-2.6 2.4-4.1 1.9-.9 3.5-2.1 3.5-2.5 0-1.4 4-2.5 8.7-2.4l4.2.1-2.4 2.3zm-105.2 12.3c-.6 2-.3 2.1 3.6 1.4l4.1-.7v5.6c0 5.3.1 5.6 2.5 5.6s2.5-.3 2.5-5.5c0-5.1.2-5.5 2.8-6.2 5.5-1.6 32.3-.9 41.1 1 8.7 1.9 10.2 1.7 8.1-.8-1.9-2.3.5-1.9 4 .7 1.7 1.2 3 2.8 3 3.5 0 .8 2.5 2.5 5.5 3.9l5.5 2.5-2.2 3c-2.2 2.9-2.2 2.9-4.2 1a19 19 0 0 0-4.9-3c-1.6-.6-2.5-1.6-2.2-2.1.8-1.3-1.4-4.2-2.6-3.4-1.3.8-1.1 31.1.1 31.9.6.4 3.8-1.4 7.2-3.9 7.2-5.4 9.7-5.7 17-2 4.3 2.2 6.2 2.5 11.7 2.2 6.5-.3 6.5-.3 8.9 3.2 1.3 1.9 3 6 3.9 9.2 1.4 5.1 1.9 5.7 4.8 6.2 4 .8 8.1-.9 8.9-3.7.7-2.7-1.5-7.6-5.2-11.9-5.6-6.3-6.1-11.6-1.6-15.9 2-1.8 3.8-2.3 10.6-2.7 6-.3 8.6-.8 9.6-2 1-1.4 1.2-1.1 1.2 1.6 0 3.7-2.8 5.7-6.7 4.7-2.3-.5-2.4-.4-1.8 2.7.5 2.8.4 3-.6 1.3-1.8-3.2-4-4.5-7.4-4.5-7.2 0-7.6 6.2-.9 14 7.4 8.6 8.3 13.3 3.5 18.1-2.4 2.4-3.8 2.9-7.6 2.9-4.6 0-4.7 0-4.1 2.7.8 3.3 5 7.3 7.6 7.3 1 0 2.4-.8 2.9-1.8.9-1.5 1-1.4 1.1.6 0 1.6-.7 2.6-2 2.9-2.4.6-2.4.4-.6 3.9 1.1 2 1.3 4.5.9 9-.5 5.3-.3 6.5 1.1 7 3.1 1.2 1.7 2.6-1.9 2-3.7-.7-4.8.7-2.3 3.2 1.7 1.7-.6 1.6-2.4-.1-1.9-1.8-10.6-1.6-11.8.3-.8 1.2-1 1.1-1-.7 0-1.2.5-2.5 1-2.8 1.7-1 1.1-2.5-1-2.5-1.1 0-2-.5-2-1.1 0-.7 1.2-1 3-.7 2 .3 3 0 3-.9 0-.7-.4-1.3-1-1.3a1 1 0 0 1-1-1c0-1.5 2.6-1.2 4 .5.7.8 2.4 1.5 3.7 1.5 2.3 0 2.5-.3 1.9-3.2-1-5.3-3.5-7.9-10.2-10.9-3.6-1.6-6.7-3.6-7.1-4.5-.4-1.1-.9-1.2-1.9-.3-.8.6-2.2.8-3.1.5-1.5-.6-1.3-1 1.3-3.1 4.1-3.2 4.9-7.5 2.5-12.9a21.8 21.8 0 0 0-18.8-12.6c-4.8 0-12.3 3.4-12.3 5.5 0 .8-.6 1.4-1.2 1.2-.8-.1-1.3.8-1.2 2 .1 2.7-1.1 3-2.2.5-.5-1.1-1 1.2-1.4 6.6-.5 7.7-.8 8.5-4.1 11.7-1.9 2-9.1 6.6-15.9 10.4l-12.5 6.9-3-1.8-12.5-7c-14.7-8-17-10.8-17-21.7-.1-5.9-.2-6.6-1.4-5.1-1.8 2.4-2.3 2.3-2.2-.5.1-1.6-.4-2.1-1.6-1.9-1.2.2-1.6-.2-1.2-1.3.8-2-6.7-5.4-11.9-5.5-7.6 0-16.2 5.9-19.1 13.2-2.1 5.1-1.3 9 2.4 12.2 2.6 2.1 2.7 2.4 1 2.9-1 .2-2.3 0-2.9-.6-.7-.7-1.7-.2-3.1 1.6-1.2 1.5-2.6 2.7-3.3 2.7-.6 0-3 .9-5.4 2.1-4.6 2.2-7.3 6.1-7.3 10.4 0 2.9 2.5 3.4 5.6 1 2.4-1.8 5.4-2.1 3.6-.3-2 2-1.4 3.4 1.5 3.3 1.4 0 2.8.5 3 1.1.2.7-.6 1-2.2.7-2.7-.6-3.5 1.1-1 2.1.8.3 1.5 1.5 1.5 2.7 0 2-.2 2.1-1.7.7-2.1-1.7-9.8-1.7-11.6.1-1.8 1.8-2.9 1.3-1.7-.8 1.2-2.3-.2-3.6-2.6-2.7-.9.3-2.5.1-3.7-.6l-2.1-1.1 2.3-.9c2.2-.8 2.3-1.1 1.7-7.6-.5-4.9-.3-7.4.8-9.4 1.3-2.4 1.2-2.7-.5-3.1-1.2-.3-1.9-1.4-1.9-2.8 0-2.2.1-2.2 1.3-.4 2 2.6 6.3 1.2 8.7-2.8 1.1-1.7 2-3.7 2-4.3 0-.6-2.3-1.4-5.2-1.6-4-.4-5.7-1.1-7.5-3.2-4-4.7-3-9.2 4.1-17.4 6.7-7.8 6.3-14.2-1-14.2-2.4 0-3.9.8-5.9 3.2l-2.8 3.3.8-3.4c.7-3.3.6-3.3-1.9-2.7-3.9 1-6.6-.9-6.6-4.6 0-2.7.2-3 1.3-1.6.9 1.2 3.5 1.7 9.5 2 6.8.4 8.6.9 10.6 2.7 4.5 4.2 4 9.6-1.4 15.8-6.5 7.3-7.3 12.9-2.3 15.2 1.4.6 4 .9 5.8.5 2.9-.5 3.4-1.1 4.8-6.2a38 38 0 0 1 3.9-9.2c2.4-3.4 2.5-3.5 8.5-3.2 5 .3 7.3-.1 11.9-2.2 7.9-3.6 10-3.4 17.2 2 3.4 2.5 6.6 4.3 7.2 3.9 1.2-.8 1.4-31.1.1-31.9-1.3-.9-3.2 1.9-2.5 3.8.4 1.1 0 1.6-1.4 1.6-1.1 0-3.4 1.1-5 2.5l-2.9 2.4-2.1-2.9c-2.6-3.5-2.7-4-.7-4 2.6 0 9.5-4 9.5-5.4 0-1.3 4.6-5.5 6.2-5.6.3 0 .4 1 .1 2.1zm85.2 0c2.8 0 2.9.1.7 1-2.6 1-6.2-.4-6.2-2.3 0-.9.3-.9 1.2 0 .7.7 2.6 1.2 4.3 1.3zm-99.5 1c0 1.5-3.3 1.8-6.2.6l-3.1-1.3 4.7.1c2.5 0 4.6.3 4.6.6zm-2 51.6c3.5 2.7 7.2 5.4 8.4 6 2.1 1.3 2.1 1.3.1 1.9-1.1.3-3 2.6-4.1 5l-2.1 4.5 2.5 1.9c3 2.4 4.5 2.5 6.2.5.7-.8 2-1.5 2.8-1.5 1.2 0 1.3.3.4 1.2-1.9 1.9-1.4 2.8 1.8 2.8 1.7 0 3 .4 3 1 0 .5-1.2 1-2.7 1-2.5 0-2.5.1-1 1.8 2.2 2.4 2.4 5 .3 3.3-1.9-1.6-8.5-1.1-11.6.8-2.3 1.4-2.4 1.4-1.2 0 2.8-3.6-1.6-7.4-7.6-6.4-2.1.4-3.2.3-2.5-.2 1.6-1.2 3.3-5.8 3.3-9.2s-1.9-5.2-8.8-8.1c-4.2-1.8-5-2.5-4.1-3.6.6-.8.9-2 .5-2.9-.6-1.8 3.7-4.4 7.5-4.5 1.7 0 5 1.8 8.9 4.7zm113.6-2.6c.8.6 1.4 2 1.4 3s.5 2.1 1.2 2.5c.7.5-1.7 2-6 4l-7.2 3.3v4.8c0 2.9.7 5.8 1.7 7.2l1.6 2.4-3.4-.7c-4.5-.8-8.3 1.6-7.6 4.9.3 1.6 0 2.2-1 1.8-.7-.3-1.3-.9-1.3-1.3 0-.5-2.6-.7-5.9-.6-4.4.1-5.7-.2-5.4-1.1.3-.7.9-1.3 1.4-1.3s.9-.5.9-1c0-.6-1.2-1-2.6-1-2.2 0-2.4-.3-1.5-1.4.7-.8 2.1-1.2 3.1-.9 2.2.6 2.6-.7.8-2.5-1.9-1.9 1.2-1.5 3.4.5 1.7 1.5 2.1 1.5 5.3 0 1.9-.9 3.5-2 3.5-2.5 0-2.2-4.3-8.8-6.3-9.5-2.1-.8-2.1-.9.8-2.1 1.7-.7 3.7-2.1 4.5-3.1.8-1 3.5-3.1 6-4.7 4.7-3.1 9.5-3.3 12.6-.7zm-33.8 39c7.2.5 15.1 1.6 17.4 2.2l4.3 1.3.3 6.7.3 6.7-2.4-.9c-6.4-2.5-23.7-3.3-56.5-2.8-18.5.3-35.5 1-37.7 1.5l-6.8 1.7-2.8.7.3-6.8.3-6.8 4.5-1.3c10.2-3 54.1-4.2 78.8-2.2zm-89.5 13.4c1.2.5 1.7 1.8 1.7 4.4 0 4.9 1.7 6.7 4.2 4.4 1-.9 4.1-2 6.8-2.3l5-.6v3.2c0 3.1-2.1 6.4-4.1 6.4-.6 0-6-1.1-12.1-2.5a66.5 66.5 0 0 0-28.3-1.5c-2.5 1-2.7.9-2.2-1.2l1.3-6.1c.4-2.6 1.4-4.2 2.8-4.8 2.4-1 22.1-.6 24.9.6zm143.1-.2c1.5 1.1 3.5 6.9 3.6 10.2 0 .7-3.2 1-9.2.7a72 72 0 0 0-21.1 2.2c-6.5 1.4-12.2 2.6-12.7 2.6-1.9 0-4-3.3-4-6.4s.2-3.2 3.3-2.9c5.7.7 7.5 1.3 9.1 2.9 2.3 2.3 3.6.8 3.6-4.1 0-4.3 0-4.4 4.3-5.3 6.5-1.5 21-1.4 23.1.1z"/>
  <path d="M189.2 312.6c.4 2.2 3.5 3.1 5.1 1.5 1.3-1.3.9-1.8-2.7-2.7-2.4-.6-2.7-.4-2.4 1.2zM319 312c-1.1.7-1.2 1.2-.3 2.1 1.5 1.5 4.3.5 4.3-1.6 0-1.7-1.8-1.9-4-.5zM242 329.4a30 30 0 0 1-5.1 6.3c-.4-.1-.6.2-.5.7 0 .5-.9 1.3-2.2 1.7-1.3.5-2 1.3-1.7 1.9.3.5.2 1-.4 1-1.3 0-.9 5.2.5 5.7.6.2 1.7-.3 2.3-1.1 1.1-1.4 1.9-1.2 6.1.9 4.1 2.1 4.9 2.2 5.4.9l.6-2.4c0-1.1-7-3.1-8.2-2.4-.4.3-.8.1-.8-.4s1-1.2 2.1-1.5c1.4-.4 2-1.1 1.6-2.1-.3-.8 1.1-3.8 3.4-6.9 2.1-3.1 3.9-6.3 3.9-7.1 0-3.2-2.6-1.4-7 4.8zM260.8 325.5c.3 1.9 0 2.5-1.4 2.5-2.5.1-6.4 3.4-6.4 5.4 0 1 .9 1.6 2.5 1.6 1.4 0 2.5.4 2.5 1 0 .8-2.2.7-8.3-.5-1.3-.2-1.7.2-1.5 1.3.3 1.2 1.3 1.6 3.6 1.4 1.8-.1 3.2.3 3.2.9s.9.8 2.1.4c1.5-.5 2-.3 1.7.6-.2.7-2 1.7-3.9 2.2-5.4 1.3-9.6 7.7-5 7.7 1 0 3.4.7 5.3 1.5 4.4 1.8 9.3.7 9.3-2.1 0-1.2.6-1.8 1.7-1.6 1.9.3 3.3-1.4 1.8-2.3-1.6-1-1.2-2.2 1.1-2.8 1.5-.4 1.8-1 1.3-1.9-1.7-2.5-1-8.8.9-9.4 2.4-.8 2.1-2.4-.4-2.4-1.2 0-2.3-.8-2.6-2-.4-1.5-1.1-1.8-2.8-1.4-1.5.4-2.4 0-2.8-1-1-2.5-2.5-1.8-1.9.9zM276 335.5c0 6.3.1 6.5 2.5 6.5s2.5-.2 2.5-6.5-.1-6.5-2.5-6.5-2.5.2-2.5 6.5z"/>
  <path d="M282 347.9c0 1-1.2 1.2-5 .7-4.2-.6-5.2-.4-7 1.4-2.4 2.4-2 5.2 1.1 8.6 2.3 2.5 2.4 5.3.3 6.1-2.5 1-4.5-.8-6.3-5.7-1.6-4.3-1.9-4.5-5.6-4.6a19 19 0 0 1-7.2-1.7c-3.5-1.8-5.3-1.5-9.8 1.8-5.4 3.9-5.5 3.9-4.9.3.4-2.3.3-2.9-.4-1.9-.8 1.1-1 1.1-1.5 0-.4-1.1-.6-1.1-.6-.1-.1.7-.5 1-1.1.7-.5-.3-1-.1-1 .4 0 .6-.6 1-1.2.9-.7-.2-1.2.5-1.2 1.4.1 1-.2 1.5-.7 1.3-.4-.3-.7.4-.6 1.5.1 1.2.8 2 1.8 2s2.1.9 2.4 2c.4 1.1 1.1 1.8 1.6 1.5.5-.4.9.1.9.9 0 1.9 1.3 2 4.1.6 2-1.1 2.6-4 .8-4-2.5 0 .4-1.8 4.6-2.9 6-1.5 10.5.3 12.8 5.2 2.2 4.5 2.1 5.3-.3 7.7-1.9 1.9-1.9 1.9 1.2 3.5 1.7.8 4.1 1.5 5.4 1.5 3.2 0 5.4 1 5.4 2.5 0 .8-.8 1.1-1.8.8-1.5-.4-1.9.1-2 2.6-.1 3.2 2.1 6 3.3 4.1.3-.5 1.9-1 3.5-1 2.8 0 5.4-1.9 2.8-2.1-.7 0-.2-.5 1.2-1.1 2.1-.9 2.2-1.2.8-1.5-1.8-.5-3.4-4.5-3-7.4.2-1.2-.3-1.5-2-1.2-1.5.3-3-.3-4.2-1.6-1.9-2.1-1.9-2.1 1.6-2.1 6.7 0 9-6.6 4.3-12.2-3.6-4.2-1.4-6.8 2.7-3.1 1 .9 1.8 1.1 1.8.5s.9-1.3 1.9-1.7c2.3-.7 3.5-3.5 2.1-4.9-.7-.7-1-.6-1 .3z"/>
  <path d="M246 368c-3 2.9-4 4.4-3.1 4.9.6.4 1.3 2.1 1.4 3.7.2 2.7 0 2.9-3.5 2.9-2 0-3.9.2-4.2.5-.9 1 .6 5.1 1.8 4.7a8 8 0 0 1 3.8.4c1.9.5 2.8.3 3.2-.7.3-.8 1.9-1.4 3.7-1.4 2.6 0 2.9-.2 2-1.4-.7-.8-1.1-3-.9-4.8.2-2.6 1-3.7 4-5.3 2.9-1.5 3.6-2.4 3.4-4.5-.3-2.1-.9-2.6-3.8-2.8-3-.3-4.2.3-7.8 3.8zM256 390.5c0 6.3.1 6.5 2.5 6.5s2.5-.2 2.5-6.5-.1-6.5-2.5-6.5-2.5.2-2.5 6.5z"/>
</svg>
